<?xml version="1.0" encoding="UTF-8"?>
<svg width="21px" height="20px" viewBox="0 0 21 20" version="1.1" xmlns="http://www.w3.org/2000/svg" xmlns:xlink="http://www.w3.org/1999/xlink">
    <!-- Generator: Sketch 3.8.3 (29802) - http://www.bohemiancoding.com/sketch -->
    <title>ic_highlight_off</title>
    <desc>Created with Sketch.</desc>
    <defs></defs>
    <g id="Welcome" stroke="none" stroke-width="1" fill="none" fill-rule="evenodd" opacity="0.348335598">
        <g id="ic_highlight_off" transform="translate(0.000000, -2.000000)">
            <g id="Icon-24px">
                <polygon id="Shape" points="0 0 24 0 24 24 0 24"></polygon>
                <path d="M12.99,8 L10.4,10.59 L7.81,8 L6.4,9.41 L8.99,12 L6.4,14.59 L7.81,16 L10.4,13.41 L12.99,16 L14.4,14.59 L11.81,12 L14.4,9.41 L12.99,8 L12.99,8 Z M10.4,2 C4.87,2 0.4,6.47 0.4,12 C0.4,17.53 4.87,22 10.4,22 C15.93,22 20.4,17.53 20.4,12 C20.4,6.47 15.93,2 10.4,2 L10.4,2 Z" id="Shape" fill="#191919" opacity="0.445199275"></path>
            </g>
        </g>
    </g>
</svg>