<?xml version="1.0" encoding="UTF-8"?>
<svg width="20px" height="20px" viewBox="0 0 20 20" version="1.1" xmlns="http://www.w3.org/2000/svg" xmlns:xlink="http://www.w3.org/1999/xlink">
    <!-- Generator: Sketch 3.8.3 (29802) - http://www.bohemiancoding.com/sketch -->
    <title>Shape</title>
    <desc>Created with Sketch.</desc>
    <defs></defs>
    <g id="Page-1" stroke="none" stroke-width="1" fill="none" fill-rule="evenodd">
        <g id="AV" transform="translate(-290.000000, -194.000000)" fill="#FFFFFF">
            <g id="ic_not_interested" transform="translate(288.000000, 192.000000)">
                <g id="Icon-24px">
                    <path d="M12,2 C6.48,2 2,6.48 2,12 C2,17.52 6.48,22 12,22 C17.52,22 22,17.52 22,12 C22,6.48 17.52,2 12,2 L12,2 Z M12,20 C7.58,20 4,16.42 4,12 C4,10.15 4.63,8.45 5.69,7.1 L16.9,18.31 C15.55,19.37 13.85,20 12,20 L12,20 Z M18.31,16.9 L7.1,5.69 C8.45,4.63 10.15,4 12,4 C16.42,4 20,7.58 20,12 C20,13.85 19.37,15.55 18.31,16.9 L18.31,16.9 Z" id="Shape"></path>
                </g>
            </g>
        </g>
    </g>
</svg>