<?xml version="1.0" encoding="UTF-8"?>
<svg width="40px" height="40px" viewBox="0 0 40 40" version="1.1" xmlns="http://www.w3.org/2000/svg" xmlns:xlink="http://www.w3.org/1999/xlink">
    <!-- Generator: Sketch 3.8.3 (29802) - http://www.bohemiancoding.com/sketch -->
    <title>Group 3</title>
    <desc>Created with Sketch.</desc>
    <defs>
        <rect id="path-1" x="0" y="0" width="40" height="40"></rect>
        <mask id="mask-2" maskContentUnits="userSpaceOnUse" maskUnits="objectBoundingBox" x="0" y="0" width="40" height="40" fill="white">
            <use xlink:href="#path-1"></use>
        </mask>
    </defs>
    <g id="Welcome" stroke="none" stroke-width="1" fill="none" fill-rule="evenodd">
        <g id="Group-3">
            <use id="Rectangle-36" stroke-opacity="0" stroke="#979797" mask="url(#mask-2)" stroke-width="2" fill="#FFFFFF" xlink:href="#path-1"></use>
            <g id="ic_search" opacity="0.196727808" transform="translate(11.000000, 11.000000)">
                <g id="Icon-24px">
                    <path d="M12.2708333,11.0833333 L11.6454167,11.0833333 L11.42375,10.8695833 C12.1995833,9.96708333 12.6666667,8.79541667 12.6666667,7.52083333 C12.6666667,4.67875 10.3629167,2.375 7.52083333,2.375 C4.67875,2.375 2.375,4.67875 2.375,7.52083333 C2.375,10.3629167 4.67875,12.6666667 7.52083333,12.6666667 C8.79541667,12.6666667 9.96708333,12.1995833 10.8695833,11.42375 L11.0833333,11.6454167 L11.0833333,12.2708333 L15.0416667,16.22125 L16.22125,15.0416667 L12.2708333,11.0833333 L12.2708333,11.0833333 Z M7.52083333,11.0833333 C5.54958333,11.0833333 3.95833333,9.49208333 3.95833333,7.52083333 C3.95833333,5.54958333 5.54958333,3.95833333 7.52083333,3.95833333 C9.49208333,3.95833333 11.0833333,5.54958333 11.0833333,7.52083333 C11.0833333,9.49208333 9.49208333,11.0833333 7.52083333,11.0833333 L7.52083333,11.0833333 Z" id="Shape" fill="#000000"></path>
                    <polygon id="Shape" points="0 0 19 0 19 19 0 19"></polygon>
                </g>
            </g>
        </g>
    </g>
</svg>